<?xml version="1.0" encoding="utf-8"?>
<!-- Generator: Adobe Illustrator 21.1.0, SVG Export Plug-In . SVG Version: 6.00 Build 0)  -->
<svg version="1.1" id="Layer_1" xmlns="http://www.w3.org/2000/svg" xmlns:xlink="http://www.w3.org/1999/xlink" x="0px" y="0px"
	 viewBox="0 0 128 128" style="enable-background:new 0 0 128 128;" xml:space="preserve">
<style type="text/css">
	.st0{fill:#353838;}
	.st1{fill:#D5DDE1;}
	.st2{fill:#03B3AF;}
</style>
<g>
	<path class="st0" d="M15.7,106.2c0,1.9-0.7,3.4-2.1,4.5c-1.4,1.1-3.2,1.7-5.5,1.7c-2.8,0-4.9-0.3-6.4-0.9v-1.6c1.6,0.7,3.7,1,6.2,1
		c1.9,0,3.3-0.4,4.4-1.3c1.1-0.9,1.6-2,1.6-3.3c0-0.9-0.2-1.6-0.5-2.1c-0.4-0.6-0.9-1.1-1.8-1.5s-2-1-3.6-1.5
		c-2.3-0.8-3.9-1.7-4.8-2.6C2.4,97.6,2,96.3,2,94.8c0-1.7,0.7-3.1,2-4.1C5.3,89.6,7,89,9.1,89c2.1,0,4.1,0.4,6,1.2l-0.6,1.4
		c-1.9-0.8-3.7-1.2-5.4-1.2c-1.7,0-3,0.4-4,1.2c-1,0.8-1.5,1.8-1.5,3.2c0,0.8,0.2,1.5,0.5,2.1s0.8,1,1.5,1.4
		c0.7,0.4,1.9,0.9,3.6,1.5c1.8,0.6,3.1,1.2,4,1.8s1.5,1.2,1.9,1.9C15.5,104.3,15.7,105.1,15.7,106.2z"/>
	<path class="st0" d="M24.5,110.9c1,0,1.8-0.1,2.5-0.2v1.2c-0.7,0.2-1.6,0.4-2.6,0.4c-1.5,0-2.6-0.4-3.3-1.2c-0.7-0.8-1.1-2-1.1-3.7
		V96.5h-2.5v-0.9l2.5-0.7l0.8-3.8h0.8v4.1h4.9v1.3h-4.9v10.6c0,1.3,0.2,2.2,0.7,2.9C22.8,110.6,23.6,110.9,24.5,110.9z"/>
	<path class="st0" d="M37.3,94.9c0.7,0,1.5,0.1,2.3,0.2l-0.3,1.5c-0.7-0.2-1.4-0.3-2.2-0.3c-1.4,0-2.6,0.6-3.5,1.8
		c-0.9,1.2-1.4,2.8-1.4,4.6v9.3h-1.5V95.2H32l0.2,3h0.1c0.7-1.2,1.4-2.1,2.2-2.6C35.3,95.1,36.2,94.9,37.3,94.9z"/>
	<path class="st0" d="M49.8,112.3c-2.4,0-4.4-0.8-5.7-2.3c-1.4-1.5-2.1-3.6-2.1-6.3c0-2.7,0.7-4.8,2-6.4c1.3-1.6,3.1-2.4,5.3-2.4
		c2,0,3.5,0.7,4.7,2.1s1.7,3.3,1.7,5.6v1.2H43.7c0,2.3,0.6,4.1,1.6,5.3c1.1,1.2,2.6,1.8,4.5,1.8c1,0,1.8-0.1,2.5-0.2
		c0.7-0.1,1.6-0.4,2.8-0.9v1.4c-0.9,0.4-1.8,0.7-2.6,0.8C51.7,112.2,50.8,112.3,49.8,112.3z M49.4,96.2c-1.6,0-2.9,0.5-3.9,1.6
		s-1.6,2.6-1.7,4.6h10.4c0-1.9-0.4-3.5-1.3-4.6C52,96.8,50.9,96.2,49.4,96.2z"/>
	<path class="st0" d="M70.6,112l-0.4-2.7h-0.1c-0.8,1.1-1.7,1.8-2.6,2.3c-0.9,0.4-1.9,0.7-3.2,0.7c-1.7,0-2.9-0.4-3.9-1.3
		c-0.9-0.8-1.4-2-1.4-3.5c0-1.6,0.7-2.9,2.1-3.8c1.4-0.9,3.3-1.4,5.9-1.4l3.2-0.1v-1.1c0-1.6-0.3-2.8-1-3.6
		c-0.7-0.8-1.7-1.2-3.1-1.2c-1.6,0-3.2,0.4-4.8,1.3l-0.6-1.3c1.8-0.9,3.7-1.3,5.5-1.3c1.8,0,3.2,0.5,4.1,1.4c0.9,1,1.4,2.5,1.4,4.5
		V112H70.6z M64.4,110.9c1.8,0,3.2-0.5,4.2-1.5c1-1,1.6-2.5,1.6-4.3v-1.7l-2.9,0.1c-2.4,0.1-4,0.5-5.1,1.1c-1,0.6-1.5,1.6-1.5,2.9
		c0,1.1,0.3,1.9,1,2.5S63.3,110.9,64.4,110.9z"/>
	<path class="st0" d="M98.2,112v-11c0-1.6-0.3-2.8-1-3.6c-0.6-0.8-1.6-1.1-2.9-1.1c-1.7,0-3,0.5-3.8,1.4c-0.8,0.9-1.2,2.4-1.2,4.5
		v9.9h-1.6v-11.5c0-2.8-1.3-4.3-3.9-4.3c-1.8,0-3,0.5-3.9,1.5s-1.2,2.7-1.2,4.9v9.3h-1.5V95.2h1.3l0.3,2.3h0.1
		c0.5-0.8,1.1-1.5,2-1.9c0.9-0.5,1.8-0.7,2.8-0.7c2.7,0,4.4,1,5.1,3h0.1c0.5-1,1.3-1.7,2.2-2.2c0.9-0.5,2-0.8,3.1-0.8
		c1.8,0,3.2,0.5,4.1,1.5c0.9,1,1.4,2.5,1.4,4.7v11H98.2z"/>
	<path class="st0" d="M106.7,112h-1.5V87.9h1.5V112z"/>
	<path class="st0" d="M109.5,95.2h1.6l3.6,9.4c1.1,2.9,1.8,4.9,2.1,5.9h0.1c0.4-1.3,1.1-3.3,2.1-6l3.6-9.3h1.6l-7.5,19.5
		c-0.6,1.6-1.1,2.7-1.5,3.2c-0.4,0.6-0.9,1-1.4,1.3c-0.6,0.3-1.2,0.4-2,0.4c-0.6,0-1.2-0.1-2-0.3V118c0.6,0.2,1.2,0.2,1.9,0.2
		c0.5,0,1-0.1,1.4-0.4c0.4-0.2,0.8-0.6,1.1-1.2c0.3-0.5,0.7-1.3,1.1-2.5c0.4-1.1,0.7-1.9,0.8-2.2L109.5,95.2z"/>
</g>
<path class="st1" d="M109.4,39.7c-1.6,0-3.1,0.2-4.6,0.6c0-0.2,0-0.4,0-0.6c0-11.4-9.3-20.7-20.7-20.7c-2,0-3.9,0.3-5.7,0.8
	C72.7,11.6,63.2,6.2,52.3,6.2C35.7,6.2,22,19,20.7,35.4c0,0-0.1,0-0.1,0C9.2,35.4,0,44.6,0,56s9.2,21,20.6,21l0,0h88.8
	c10.3,0,18.6-8.3,18.6-18.6C128,48.1,119.7,39.7,109.4,39.7z"/>
<path class="st2" d="M86.2,47.4L55,66.7c-1.8,1.3-4.3,0-4.3-2.2V25.8c0-2.2,2.5-3.5,4.3-2.2l31.2,19.4C87.7,44,87.7,46.3,86.2,47.4z
	"/>
</svg>
