<?xml version="1.0" encoding="utf-8"?>
<!-- Generator: Adobe Illustrator 21.1.0, SVG Export Plug-In . SVG Version: 6.00 Build 0)  -->
<svg version="1.1" id="Layer_1" xmlns="http://www.w3.org/2000/svg" xmlns:xlink="http://www.w3.org/1999/xlink" x="0px" y="0px"
	 viewBox="0 0 128 128" style="enable-background:new 0 0 128 128;" xml:space="preserve">
<style type="text/css">
	.st0{fill:#D5DDE1;}
	.st1{fill:#03B3AF;}
</style>
<path class="st0" d="M109.4,58.7c-1.6,0-3.1,0.2-4.6,0.6c0-0.2,0-0.4,0-0.6c0-11.4-9.3-20.7-20.7-20.7c-2,0-3.9,0.3-5.7,0.8
	c-5.7-8.3-15.3-13.7-26.1-13.7C35.7,25.2,22,38,20.7,54.4c0,0-0.1,0-0.1,0C9.2,54.4,0,63.6,0,75s9.2,21,20.6,21l0,0h88.8
	c10.3,0,18.6-8.3,18.6-18.6C128,67.1,119.7,58.7,109.4,58.7z"/>
<path class="st1" d="M86.2,66.4L55,85.7c-1.8,1.3-4.3,0-4.3-2.2V44.8c0-2.2,2.5-3.5,4.3-2.2l31.2,19.4C87.7,63,87.7,65.3,86.2,66.4z
	"/>
</svg>
